<svg width="71" height="19" viewBox="0 0 71 19" fill="none" xmlns="http://www.w3.org/2000/svg">
<path d="M6.0675 12.9072C9.41847 12.9072 12.135 10.1907 12.135 6.83971C12.135 6.45994 12.1001 6.08831 12.0333 5.72787C11.6729 5.66111 11.3012 5.62622 10.9215 5.62622C7.5705 5.62622 4.85401 8.34272 4.85401 11.6937C4.85401 12.0735 4.8889 12.4451 4.95565 12.8055C5.3161 12.8723 5.68773 12.9072 6.0675 12.9072Z" fill="white"/>
<path fill-rule="evenodd" clip-rule="evenodd" d="M4.95561 12.8055C2.13565 12.2833 0 9.81087 0 6.83968C0 3.48871 2.7165 0.772217 6.06746 0.772217C9.03865 0.772217 11.511 2.90787 12.0333 5.72783C11.6728 5.66108 11.3012 5.62619 10.9214 5.62619C7.57047 5.62619 4.85397 8.34268 4.85397 11.6936C4.85397 12.0734 4.88886 12.445 4.95561 12.8055Z" fill="#CDD0D8"/>
<path fill-rule="evenodd" clip-rule="evenodd" d="M6.06748 12.9071C9.41844 12.9071 12.1349 10.1906 12.1349 6.83963C12.1349 6.45986 12.1 6.08823 12.0333 5.72778C14.8533 6.25003 16.9889 8.72241 16.9889 11.6936C16.9889 15.0446 14.2724 17.7611 10.9214 17.7611C7.95025 17.7611 5.47787 15.6254 4.95563 12.8054C5.31607 12.8722 5.6877 12.9071 6.06748 12.9071Z" fill="#CDD0D8"/>
<path d="M28.6603 11.1602C28.4441 11.8593 28.0657 12.3818 27.5251 12.7278C26.9846 13.0665 26.3539 13.2359 25.6332 13.2359C24.9269 13.2359 24.3142 13.0882 23.7953 12.7927C23.2836 12.4972 22.8872 12.0755 22.6061 11.5278C22.3322 10.98 22.1953 10.3241 22.1953 9.56014C22.1953 8.79615 22.3358 8.14028 22.6169 7.59251C22.898 7.04475 23.2944 6.62312 23.8061 6.32761C24.3178 6.03211 24.9197 5.88436 25.6116 5.88436C26.3395 5.88436 26.963 6.03932 27.4819 6.34924C28.008 6.65195 28.3684 7.11322 28.563 7.73306L27.2116 8.30605C27.0891 7.8736 26.9017 7.56729 26.6494 7.3871C26.3972 7.19971 26.0728 7.10601 25.6764 7.10601C25.0854 7.10601 24.6133 7.31863 24.2602 7.74387C23.9142 8.1619 23.7413 8.76732 23.7413 9.56014C23.7413 10.3457 23.907 10.9512 24.2386 11.3764C24.5701 11.8016 25.0494 12.0143 25.6764 12.0143C26.0656 12.0143 26.4008 11.9098 26.6819 11.7007C26.9702 11.4917 27.172 11.1746 27.2873 10.7494L28.6603 11.1602Z" fill="#CDD0D8"/>
<path d="M30.5265 6.94385C29.9139 6.94385 29.6075 6.68078 29.6075 6.15464C29.6075 5.62129 29.9139 5.35461 30.5265 5.35461C31.1391 5.35461 31.4454 5.62129 31.4454 6.15464C31.4454 6.68078 31.1391 6.94385 30.5265 6.94385ZM31.2616 7.72225V13.1278H29.7805V7.72225H31.2616Z" fill="#CDD0D8"/>
<path d="M32.8317 13.1278V7.72225H34.1182L34.2155 8.78174C34.3525 8.41416 34.5579 8.12947 34.8318 7.92766C35.1128 7.71864 35.466 7.61414 35.8912 7.61414C36.1435 7.61414 36.3381 7.65378 36.475 7.73306L36.3021 8.97634C36.23 8.95471 36.1399 8.9367 36.0318 8.92228C35.9309 8.90066 35.7976 8.88985 35.6318 8.88985C35.4084 8.88985 35.1957 8.9439 34.9939 9.05202C34.7993 9.15292 34.6372 9.31148 34.5074 9.5277C34.3777 9.73672 34.3128 10.0034 34.3128 10.3277V13.1278H32.8317Z" fill="#CDD0D8"/>
<path d="M39.7412 7.61414C40.4619 7.61414 41.0205 7.7691 41.4169 8.07901C41.8205 8.38893 42.0872 8.76372 42.2169 9.20337L40.8331 9.70068C40.689 9.04481 40.3322 8.71687 39.7628 8.71687C39.352 8.71687 39.0313 8.86102 38.8006 9.14931C38.5772 9.43761 38.4655 9.86645 38.4655 10.4358C38.4655 11.0124 38.5808 11.4413 38.8114 11.7224C39.0493 11.9962 39.37 12.1332 39.7736 12.1332C40.4007 12.1332 40.7754 11.8125 40.898 11.171L42.2386 11.6034C42.116 12.0863 41.8421 12.4791 41.4169 12.7818C40.9989 13.0846 40.4547 13.2359 39.7844 13.2359C39.2223 13.2359 38.7285 13.1242 38.3033 12.9008C37.8853 12.6773 37.5609 12.3566 37.3303 11.9386C37.0997 11.5206 36.9844 11.016 36.9844 10.425C36.9844 9.83402 37.0997 9.3295 37.3303 8.91147C37.5682 8.49344 37.8925 8.17271 38.3033 7.94928C38.7213 7.72585 39.2006 7.61414 39.7412 7.61414Z" fill="#CDD0D8"/>
<path d="M45.8544 7.61414C46.3949 7.61414 46.8742 7.72585 47.2922 7.94928C47.7103 8.17271 48.0346 8.49344 48.2652 8.91147C48.5031 9.3295 48.622 9.83402 48.622 10.425C48.622 11.016 48.5031 11.5206 48.2652 11.9386C48.0346 12.3566 47.7103 12.6773 47.2922 12.9008C46.8742 13.1242 46.3949 13.2359 45.8544 13.2359C45.3066 13.2359 44.8237 13.1242 44.4057 12.9008C43.9949 12.6773 43.6705 12.3566 43.4327 11.9386C43.202 11.5206 43.0867 11.016 43.0867 10.425C43.0867 9.83402 43.202 9.3295 43.4327 8.91147C43.6705 8.49344 43.9949 8.17271 44.4057 7.94928C44.8237 7.72585 45.3066 7.61414 45.8544 7.61414ZM45.8544 8.71687C45.4507 8.71687 45.1336 8.86102 44.903 9.14931C44.6796 9.4304 44.5678 9.85564 44.5678 10.425C44.5678 10.9944 44.6796 11.4233 44.903 11.7115C45.1336 11.9926 45.4507 12.1332 45.8544 12.1332C46.2508 12.1332 46.5607 11.9926 46.7841 11.7115C47.0148 11.4233 47.1301 10.9944 47.1301 10.425C47.1301 9.85564 47.0148 9.4304 46.7841 9.14931C46.5607 8.86102 46.2508 8.71687 45.8544 8.71687Z" fill="#CDD0D8"/>
<path d="M52.3262 7.61414C52.8668 7.61414 53.3461 7.72585 53.7641 7.94928C54.1822 8.17271 54.5065 8.49344 54.7371 8.91147C54.975 9.3295 55.0939 9.83402 55.0939 10.425C55.0939 11.016 54.975 11.5206 54.7371 11.9386C54.5065 12.3566 54.1822 12.6773 53.7641 12.9008C53.3461 13.1242 52.8668 13.2359 52.3262 13.2359C51.7785 13.2359 51.2956 13.1242 50.8776 12.9008C50.4667 12.6773 50.1424 12.3566 49.9046 11.9386C49.6739 11.5206 49.5586 11.016 49.5586 10.425C49.5586 9.83402 49.6739 9.3295 49.9046 8.91147C50.1424 8.49344 50.4667 8.17271 50.8776 7.94928C51.2956 7.72585 51.7785 7.61414 52.3262 7.61414ZM52.3262 8.71687C51.9226 8.71687 51.6055 8.86102 51.3749 9.14931C51.1514 9.4304 51.0397 9.85564 51.0397 10.425C51.0397 10.9944 51.1514 11.4233 51.3749 11.7115C51.6055 11.9926 51.9226 12.1332 52.3262 12.1332C52.7227 12.1332 53.0326 11.9926 53.256 11.7115C53.4866 11.4233 53.602 10.9944 53.602 10.425C53.602 9.85564 53.4866 9.4304 53.256 9.14931C53.0326 8.86102 52.7227 8.71687 52.3262 8.71687Z" fill="#CDD0D8"/>
<path d="M57.7927 5.35461V11.4629C57.7927 11.7152 57.8359 11.8917 57.9224 11.9926C58.0089 12.0935 58.1531 12.144 58.3549 12.144C58.4774 12.144 58.5783 12.1368 58.6576 12.1224C58.7369 12.108 58.8378 12.0791 58.9603 12.0359L58.8306 13.0089C58.708 13.081 58.5531 13.135 58.3657 13.171C58.1855 13.2143 58.0053 13.2359 57.8251 13.2359C57.299 13.2359 56.9134 13.1098 56.6683 12.8575C56.4305 12.5981 56.3116 12.1872 56.3116 11.6251V5.35461H57.7927Z" fill="#CDD0D8"/>
<path d="M62.2938 13.2359C61.4433 13.2359 60.7622 12.9909 60.2505 12.5008C59.7387 12.0034 59.4829 11.3115 59.4829 10.425C59.4829 9.83402 59.5982 9.3295 59.8288 8.91147C60.0595 8.49344 60.3802 8.17271 60.791 7.94928C61.209 7.72585 61.6847 7.61414 62.2181 7.61414C62.7658 7.61414 63.2307 7.72585 63.6127 7.94928C63.9947 8.1655 64.2866 8.46461 64.4884 8.8466C64.6902 9.22139 64.7911 9.65023 64.7911 10.1331C64.7911 10.2773 64.7875 10.4142 64.7803 10.5439C64.7731 10.6737 64.7623 10.789 64.7479 10.8899H60.9316C60.9892 11.3079 61.1334 11.6215 61.364 11.8305C61.6018 12.0323 61.9082 12.1332 62.2829 12.1332C62.6001 12.1332 62.8559 12.0719 63.0505 11.9494C63.2451 11.8269 63.3965 11.6575 63.5046 11.4413L64.683 11.8953C64.51 12.3206 64.2073 12.6521 63.7749 12.89C63.3424 13.1206 62.8487 13.2359 62.2938 13.2359ZM62.2073 8.70606C61.5081 8.70606 61.0865 9.09166 60.9424 9.86285H63.3749C63.3316 9.48806 63.2091 9.20337 63.0073 9.00877C62.8127 8.80696 62.546 8.70606 62.2073 8.70606Z" fill="#CDD0D8"/>
<path d="M68.2085 13.2359C67.6608 13.2359 67.1598 13.1386 66.7058 12.944C66.2589 12.7494 65.895 12.4755 65.6139 12.1224L66.4679 11.2575C66.6409 11.5169 66.8716 11.7296 67.1599 11.8953C67.4481 12.0611 67.7905 12.144 68.1869 12.144C68.468 12.144 68.6914 12.1044 68.8572 12.0251C69.0302 11.9386 69.1167 11.8052 69.1167 11.6251C69.1167 11.5097 69.077 11.4124 68.9977 11.3332C68.9185 11.2467 68.7599 11.1782 68.522 11.1277L67.5707 10.9331C66.9436 10.8034 66.4968 10.6088 66.2301 10.3493C65.9706 10.0827 65.8409 9.74032 65.8409 9.32229C65.8409 9.02679 65.9274 8.7493 66.1004 8.48984C66.2805 8.23037 66.5472 8.02136 66.9004 7.86279C67.2535 7.69702 67.6932 7.61414 68.2193 7.61414C69.3149 7.61414 70.1005 7.94928 70.5762 8.61957L69.6897 9.48446C69.5311 9.2322 69.3221 9.0412 69.0626 8.91147C68.8103 8.77453 68.5437 8.70606 68.2626 8.70606C67.6283 8.70606 67.3112 8.88264 67.3112 9.2358C67.3112 9.35112 67.3617 9.45203 67.4626 9.53851C67.5635 9.6178 67.7473 9.68627 68.0139 9.74393L69.1167 9.97096C69.65 10.0791 70.032 10.2629 70.2626 10.5223C70.4933 10.7746 70.6086 11.0809 70.6086 11.4413C70.6086 11.9602 70.3996 12.389 69.9815 12.7278C69.5707 13.0665 68.9797 13.2359 68.2085 13.2359Z" fill="#CDD0D8"/>
</svg>
