<svg width="84" height="19" viewBox="0 0 84 19" fill="none" xmlns="http://www.w3.org/2000/svg">
<path d="M7.92815 12.0981C11.0557 12.0981 13.5911 9.56275 13.5911 6.43518C13.5911 3.30761 11.0557 0.772217 7.92815 0.772217H0V12.0981H7.92815Z" fill="#CDD0D8"/>
<path d="M0 0.772217L13.5911 17.7611H4.53037L0 12.0981V0.772217Z" fill="#CDD0D8"/>
<path d="M8.98238 12.0002C8.64081 12.0645 8.28841 12.0981 7.92815 12.0981H0V0.772217L8.98238 12.0002Z" fill="white"/>
<path d="M22.9118 12.8498C22.119 12.8498 21.4379 12.6912 20.8685 12.3741C20.3063 12.0498 19.8739 11.5957 19.5712 11.0119C19.2685 10.4209 19.1171 9.72536 19.1171 8.92534C19.1171 8.12532 19.2685 7.43341 19.5712 6.84961C19.8739 6.26581 20.3063 5.81534 20.8685 5.49822C21.4379 5.17389 22.119 5.01172 22.9118 5.01172C23.4236 5.01172 23.9064 5.091 24.3605 5.24956C24.8218 5.40813 25.2002 5.63516 25.4957 5.93066L25.0416 7.0334C24.7173 6.75951 24.3857 6.56131 24.047 6.43879C23.7082 6.30905 23.3443 6.24419 22.9551 6.24419C22.1839 6.24419 21.5965 6.47843 21.1929 6.94691C20.7892 7.40818 20.5874 8.06766 20.5874 8.92534C20.5874 9.78302 20.7892 10.4461 21.1929 10.9146C21.5965 11.3831 22.1839 11.6173 22.9551 11.6173C23.3443 11.6173 23.7082 11.556 24.047 11.4335C24.3857 11.3038 24.7173 11.102 25.0416 10.8281L25.4957 11.9308C25.2002 12.2191 24.8218 12.4462 24.3605 12.6119C23.9064 12.7705 23.4236 12.8498 22.9118 12.8498Z" fill="#CDD0D8"/>
<path d="M28.6045 12.8498C28.0567 12.8498 27.581 12.7381 27.1774 12.5146C26.7738 12.2912 26.4603 11.9741 26.2368 11.5633C26.0134 11.1452 25.9017 10.6551 25.9017 10.0929C25.9017 9.53076 26.0134 9.04426 26.2368 8.63344C26.4603 8.22262 26.7738 7.90549 27.1774 7.68206C27.581 7.45863 28.0567 7.34692 28.6045 7.34692C29.1522 7.34692 29.6279 7.45863 30.0315 7.68206C30.4351 7.90549 30.7487 8.22262 30.9721 8.63344C31.1955 9.04426 31.3072 9.53076 31.3072 10.0929C31.3072 10.6551 31.1955 11.1452 30.9721 11.5633C30.7487 11.9741 30.4351 12.2912 30.0315 12.5146C29.6279 12.7381 29.1522 12.8498 28.6045 12.8498ZM28.6045 11.8227C29.0081 11.8227 29.3324 11.6786 29.5775 11.3903C29.8225 11.0948 29.945 10.6623 29.945 10.0929C29.945 9.51635 29.8225 9.08751 29.5775 8.80642C29.3324 8.51812 29.0081 8.37397 28.6045 8.37397C28.2009 8.37397 27.8765 8.51812 27.6315 8.80642C27.3864 9.08751 27.2639 9.51635 27.2639 10.0929C27.2639 10.6623 27.3864 11.0948 27.6315 11.3903C27.8765 11.6786 28.2009 11.8227 28.6045 11.8227Z" fill="#CDD0D8"/>
<path d="M32.4443 12.7417V7.45503H33.7632V8.26586C33.9218 7.97757 34.1416 7.75414 34.4227 7.59557C34.7038 7.4298 35.0281 7.34692 35.3957 7.34692C36.1885 7.34692 36.7075 7.69287 36.9525 8.38479C37.1183 8.06045 37.3561 7.80819 37.666 7.62801C37.976 7.44062 38.3291 7.34692 38.7255 7.34692C39.9147 7.34692 40.5094 8.07126 40.5094 9.51995V12.7417H39.158V9.57401C39.158 9.17039 39.0895 8.87489 38.9526 8.6875C38.8228 8.5001 38.5994 8.40641 38.2823 8.40641C37.9291 8.40641 37.6516 8.53254 37.4498 8.7848C37.248 9.02985 37.1471 9.3722 37.1471 9.81185V12.7417H35.7957V9.57401C35.7957 9.17039 35.7272 8.87489 35.5903 8.6875C35.4606 8.5001 35.2407 8.40641 34.9308 8.40641C34.5777 8.40641 34.3002 8.53254 34.0984 8.7848C33.8966 9.02985 33.7957 9.3722 33.7957 9.81185V12.7417H32.4443Z" fill="#CDD0D8"/>
<path d="M41.9251 12.7417V7.45503H43.2441V8.26586C43.4026 7.97757 43.6225 7.75414 43.9035 7.59557C44.1846 7.4298 44.509 7.34692 44.8765 7.34692C45.6694 7.34692 46.1883 7.69287 46.4333 8.38479C46.5991 8.06045 46.837 7.80819 47.1469 7.62801C47.4568 7.44062 47.81 7.34692 48.2064 7.34692C49.3956 7.34692 49.9902 8.07126 49.9902 9.51995V12.7417H48.6388V9.57401C48.6388 9.17039 48.5703 8.87489 48.4334 8.6875C48.3037 8.5001 48.0802 8.40641 47.7631 8.40641C47.4099 8.40641 47.1325 8.53254 46.9307 8.7848C46.7288 9.02985 46.6279 9.3722 46.6279 9.81185V12.7417H45.2766V9.57401C45.2766 9.17039 45.2081 8.87489 45.0711 8.6875C44.9414 8.5001 44.7216 8.40641 44.4117 8.40641C44.0585 8.40641 43.781 8.53254 43.5792 8.7848C43.3774 9.02985 43.2765 9.3722 43.2765 9.81185V12.7417H41.9251Z" fill="#CDD0D8"/>
<path d="M53.1249 12.8498C52.7429 12.8498 52.4006 12.7777 52.0979 12.6336C51.8024 12.4822 51.5681 12.2804 51.3951 12.0281C51.2294 11.7759 51.1465 11.4912 51.1465 11.1741C51.1465 10.7849 51.2474 10.4785 51.4492 10.2551C51.651 10.0245 51.9789 9.8587 52.433 9.7578C52.8871 9.65689 53.4961 9.60644 54.2601 9.60644H54.6385V9.37941C54.6385 9.01904 54.5592 8.75957 54.4006 8.60101C54.2421 8.44244 53.9754 8.36316 53.6006 8.36316C53.3051 8.36316 53.0024 8.41001 52.6925 8.50371C52.3825 8.5902 52.069 8.72714 51.7519 8.91453L51.3627 7.99559C51.5501 7.86585 51.7699 7.75414 52.0222 7.66044C52.2816 7.55954 52.5519 7.48386 52.833 7.43341C53.1213 7.37575 53.3916 7.34692 53.6438 7.34692C54.415 7.34692 54.988 7.5271 55.3628 7.88747C55.7376 8.24064 55.925 8.792 55.925 9.54157V12.7417H54.6601V11.8984C54.5376 12.1939 54.343 12.4281 54.0763 12.6011C53.8096 12.7669 53.4925 12.8498 53.1249 12.8498ZM53.406 11.92C53.7592 11.92 54.0511 11.7975 54.2817 11.5524C54.5195 11.3074 54.6385 10.9975 54.6385 10.6227V10.3848H54.2709C53.5934 10.3848 53.1213 10.4389 52.8546 10.547C52.5952 10.6479 52.4654 10.8353 52.4654 11.1092C52.4654 11.347 52.5483 11.5416 52.7141 11.693C52.8799 11.8443 53.1105 11.92 53.406 11.92Z" fill="#CDD0D8"/>
<path d="M57.2966 12.7417V7.45503H58.6156V8.27667C58.7958 7.97396 59.0372 7.74333 59.34 7.58476C59.6499 7.4262 59.9958 7.34692 60.3778 7.34692C61.6247 7.34692 62.2481 8.07126 62.2481 9.51995V12.7417H60.8967V9.58482C60.8967 9.174 60.8175 8.87489 60.6589 8.6875C60.5075 8.5001 60.2697 8.40641 59.9454 8.40641C59.549 8.40641 59.2318 8.53254 58.994 8.7848C58.7634 9.02985 58.648 9.35779 58.648 9.76861V12.7417H57.2966Z" fill="#CDD0D8"/>
<path d="M65.6532 12.8498C65.1919 12.8498 64.7847 12.7381 64.4316 12.5146C64.0856 12.2912 63.8153 11.9741 63.6207 11.5633C63.4261 11.1452 63.3288 10.6551 63.3288 10.0929C63.3288 9.52356 63.4261 9.03706 63.6207 8.63344C63.8153 8.22262 64.0856 7.90549 64.4316 7.68206C64.7847 7.45863 65.1919 7.34692 65.6532 7.34692C66.028 7.34692 66.3667 7.4298 66.6695 7.59557C66.9722 7.76134 67.1992 7.98117 67.3506 8.25505V5.11983H68.702V12.7417H67.383V11.866C67.2388 12.1687 67.0118 12.4101 66.7019 12.5903C66.392 12.7633 66.0424 12.8498 65.6532 12.8498ZM66.0316 11.8227C66.4352 11.8227 66.7596 11.6786 67.0046 11.3903C67.2497 11.0948 67.3722 10.6623 67.3722 10.0929C67.3722 9.51635 67.2497 9.08751 67.0046 8.80642C66.7596 8.51812 66.4352 8.37397 66.0316 8.37397C65.628 8.37397 65.3037 8.51812 65.0586 8.80642C64.8136 9.08751 64.691 9.51635 64.691 10.0929C64.691 10.6623 64.8136 11.0948 65.0586 11.3903C65.3037 11.6786 65.628 11.8227 66.0316 11.8227Z" fill="#CDD0D8"/>
<path d="M72.1465 12.3092V10.1146H70.0059V9.16319H72.1465V7.0334H73.1411V9.16319H75.2817V10.1146H73.1411V12.3092H72.1465Z" fill="#CDD0D8"/>
<path d="M76.7154 12.7417V5.11983H80.0236C80.8596 5.11983 81.5047 5.32164 81.9587 5.72525C82.4128 6.12166 82.6398 6.68023 82.6398 7.40097C82.6398 7.97036 82.4921 8.44244 82.1966 8.81723C81.9011 9.18481 81.4758 9.43346 80.9209 9.5632C81.2885 9.67851 81.5912 9.956 81.829 10.3957L83.1047 12.7417H81.5803L80.2614 10.3092C80.1317 10.0713 79.9767 9.90915 79.7965 9.82266C79.6235 9.73617 79.4001 9.69293 79.1262 9.69293H78.0992V12.7417H76.7154ZM78.0992 8.66587H79.7857C80.7947 8.66587 81.2993 8.25505 81.2993 7.43341C81.2993 6.61897 80.7947 6.21175 79.7857 6.21175H78.0992V8.66587Z" fill="#CDD0D8"/>
</svg>
