<svg width="75" height="19" viewBox="0 0 75 19" fill="none" xmlns="http://www.w3.org/2000/svg">
<path d="M13.0817 9.26668C11.7093 10.8 9.71491 11.765 7.49511 11.765C5.27532 11.765 3.2809 10.8 1.9085 9.26668C3.2809 7.73331 5.27532 6.76831 7.49511 6.76831C9.71491 6.76831 11.7093 7.73331 13.0817 9.26668Z" fill="white"/>
<path fill-rule="evenodd" clip-rule="evenodd" d="M0 14.2634C0 10.124 3.35567 6.76831 7.49509 6.76831C5.2753 6.76831 3.2809 7.73331 1.9085 9.26668C3.2809 10.8 5.27531 11.765 7.49511 11.765C9.7149 11.765 11.7093 10.8 13.0817 9.26668C14.2685 10.5927 14.9902 12.3438 14.9902 14.2634V17.0949C14.9902 17.4628 14.6919 17.7611 14.324 17.7611H0.66623C0.298282 17.7611 0 17.4628 0 17.0949V14.2634ZM13.0817 9.26668C13.0817 9.26669 13.0817 9.26668 13.0817 9.26668V9.26668Z" fill="#CDD0D8"/>
<path fill-rule="evenodd" clip-rule="evenodd" d="M4.68377 11.2199C3.61358 10.7866 2.66623 10.1133 1.9085 9.26666C3.2809 7.73329 5.27531 6.7683 7.49511 6.7683C9.7149 6.7683 11.7093 7.73329 13.0817 9.26665C13.0817 9.26665 13.0817 9.26666 13.0817 9.26665C14.2685 7.94063 14.9902 6.18956 14.9902 4.26993V1.43845C14.9902 1.0705 14.6919 0.772218 14.324 0.772218L0.666231 0.772217C0.298282 0.772217 2.79703e-07 1.0705 2.47536e-07 1.43845L0 4.26993C-4.97868e-07 7.41516 1.93733 10.1079 4.68377 11.2199Z" fill="#CDD0D8"/>
<path d="M26.6973 5.58163V13.1278H25.1838V9.91689H21.9512V13.1278H20.4377V5.58163H21.9512V8.68442H25.1838V5.58163H26.6973Z" fill="#CDD0D8"/>
<path d="M30.8466 13.2251C30.27 13.2251 29.7511 13.099 29.2898 12.8467C28.8285 12.5872 28.4645 12.2233 28.1979 11.7548C27.9384 11.2863 27.8087 10.7457 27.8087 10.1331C27.8087 9.52048 27.942 8.97992 28.2087 8.51144C28.4826 8.04296 28.8537 7.68259 29.3222 7.43033C29.7907 7.17086 30.3132 7.04113 30.8898 7.04113C31.4664 7.04113 31.989 7.17086 32.4574 7.43033C32.9259 7.68259 33.2935 8.04296 33.5602 8.51144C33.8341 8.97992 33.971 9.52048 33.971 10.1331C33.971 10.7457 33.8304 11.2863 33.5494 11.7548C33.2755 12.2233 32.9007 12.5872 32.425 12.8467C31.9565 13.099 31.4304 13.2251 30.8466 13.2251ZM30.8466 11.9061C31.1205 11.9061 31.3763 11.8413 31.6142 11.7115C31.8592 11.5746 32.0538 11.3728 32.198 11.1061C32.3421 10.8394 32.4142 10.5151 32.4142 10.1331C32.4142 9.56372 32.2628 9.12767 31.9601 8.82496C31.6646 8.51504 31.3006 8.36009 30.8682 8.36009C30.4358 8.36009 30.0718 8.51504 29.7763 8.82496C29.488 9.12767 29.3438 9.56372 29.3438 10.1331C29.3438 10.7025 29.4844 11.1421 29.7655 11.4521C30.0538 11.7548 30.4141 11.9061 30.8466 11.9061Z" fill="#CDD0D8"/>
<path d="M40.7354 7.13843V13.1278H39.2111V12.371C39.0165 12.6305 38.7606 12.8359 38.4435 12.9872C38.1336 13.1314 37.7948 13.2035 37.4272 13.2035C36.9588 13.2035 36.5443 13.1062 36.184 12.9116C35.8236 12.7098 35.5389 12.4179 35.3299 12.0359C35.1281 11.6467 35.0272 11.1854 35.0272 10.652V7.13843H36.5407V10.4358C36.5407 10.9115 36.6597 11.2791 36.8975 11.5386C37.1354 11.7908 37.4597 11.9169 37.8705 11.9169C38.2885 11.9169 38.6165 11.7908 38.8543 11.5386C39.0922 11.2791 39.2111 10.9115 39.2111 10.4358V7.13843H40.7354Z" fill="#CDD0D8"/>
<path d="M43.7424 8.06819C43.937 7.75106 44.1892 7.5024 44.4992 7.32222C44.8163 7.14203 45.1766 7.05194 45.5803 7.05194V8.64117H45.1803C44.7046 8.64117 44.3442 8.75289 44.0991 8.97632C43.8613 9.19975 43.7424 9.58895 43.7424 10.1439V13.1278H42.2288V7.13843H43.7424V8.06819Z" fill="#CDD0D8"/>
<path d="M48.9457 7.04113C49.3926 7.04113 49.7854 7.13122 50.1241 7.31141C50.4629 7.48439 50.7296 7.71142 50.9242 7.99251V7.13843H52.4485V13.171C52.4485 13.726 52.3368 14.2197 52.1134 14.6522C51.8899 15.0918 51.5548 15.4378 51.1079 15.69C50.6611 15.9495 50.1205 16.0792 49.4863 16.0792C48.6358 16.0792 47.9367 15.881 47.3889 15.4846C46.8484 15.0882 46.5421 14.5476 46.47 13.8629H47.9727C48.052 14.1368 48.2214 14.353 48.4808 14.5116C48.7475 14.6774 49.0682 14.7603 49.443 14.7603C49.8827 14.7603 50.2395 14.6269 50.5133 14.3603C50.7872 14.1008 50.9242 13.7044 50.9242 13.171V12.2413C50.7296 12.5224 50.4593 12.7566 50.1133 12.944C49.7746 13.1314 49.3854 13.2251 48.9457 13.2251C48.4412 13.2251 47.9799 13.0954 47.5619 12.8359C47.1439 12.5764 46.8123 12.2124 46.5673 11.744C46.3294 11.2683 46.2105 10.7241 46.2105 10.1115C46.2105 9.50606 46.3294 8.96911 46.5673 8.50063C46.8123 8.03215 47.1403 7.67178 47.5511 7.41952C47.9691 7.16726 48.434 7.04113 48.9457 7.04113ZM50.9242 10.1331C50.9242 9.76553 50.8521 9.45201 50.7079 9.19254C50.5638 8.92587 50.3692 8.72406 50.1241 8.58712C49.8791 8.44297 49.616 8.3709 49.3349 8.3709C49.0538 8.3709 48.7944 8.43937 48.5565 8.57631C48.3187 8.71325 48.1241 8.91506 47.9727 9.18173C47.8286 9.4412 47.7565 9.75112 47.7565 10.1115C47.7565 10.4719 47.8286 10.789 47.9727 11.0629C48.1241 11.3295 48.3187 11.5349 48.5565 11.6791C48.8016 11.8232 49.061 11.8953 49.3349 11.8953C49.616 11.8953 49.8791 11.8268 50.1241 11.6899C50.3692 11.5458 50.5638 11.344 50.7079 11.0845C50.8521 10.8178 50.9242 10.5007 50.9242 10.1331Z" fill="#CDD0D8"/>
<path d="M55.4403 5.12756V13.1278H53.9268V5.12756H55.4403Z" fill="#CDD0D8"/>
<path d="M56.5465 10.1115C56.5465 9.50606 56.6654 8.96911 56.9033 8.50063C57.1483 8.03215 57.4763 7.67178 57.8871 7.41952C58.3051 7.16726 58.77 7.04113 59.2817 7.04113C59.7286 7.04113 60.1178 7.13122 60.4493 7.31141C60.7881 7.49159 61.0584 7.71863 61.2602 7.99251V7.13843H62.7845V13.1278H61.2602V12.2521C61.0656 12.5332 60.7953 12.7674 60.4493 12.9548C60.1106 13.135 59.7178 13.2251 59.2709 13.2251C58.7664 13.2251 58.3051 13.0954 57.8871 12.8359C57.4763 12.5764 57.1483 12.2124 56.9033 11.744C56.6654 11.2683 56.5465 10.7241 56.5465 10.1115ZM61.2602 10.1331C61.2602 9.76553 61.1881 9.45201 61.0439 9.19254C60.8998 8.92587 60.7052 8.72406 60.4601 8.58712C60.2151 8.44297 59.952 8.3709 59.6709 8.3709C59.3898 8.3709 59.1304 8.43937 58.8925 8.57631C58.6547 8.71325 58.4601 8.91506 58.3087 9.18173C58.1646 9.4412 58.0925 9.75112 58.0925 10.1115C58.0925 10.4719 58.1646 10.789 58.3087 11.0629C58.4601 11.3295 58.6547 11.5349 58.8925 11.6791C59.1376 11.8232 59.397 11.8953 59.6709 11.8953C59.952 11.8953 60.2151 11.8268 60.4601 11.6899C60.7052 11.5458 60.8998 11.344 61.0439 11.0845C61.1881 10.8178 61.2602 10.5007 61.2602 10.1331Z" fill="#CDD0D8"/>
<path d="M66.5547 13.2251C66.0646 13.2251 65.625 13.1386 65.2358 12.9656C64.8466 12.7854 64.5367 12.544 64.306 12.2413C64.0826 11.9386 63.9601 11.6034 63.9384 11.2358H65.4628C65.4916 11.4665 65.6034 11.6575 65.798 11.8088C65.9998 11.9602 66.2484 12.0359 66.5439 12.0359C66.8322 12.0359 67.0556 11.9782 67.2142 11.8629C67.38 11.7476 67.4629 11.5998 67.4629 11.4196C67.4629 11.225 67.362 11.0809 67.1602 10.9872C66.9656 10.8863 66.652 10.7782 66.2196 10.6629C65.7727 10.5547 65.4052 10.443 65.1169 10.3277C64.8358 10.2124 64.5907 10.0358 64.3817 9.79796C64.1799 9.56012 64.079 9.23939 64.079 8.83577C64.079 8.50423 64.1727 8.20152 64.3601 7.92764C64.5547 7.65376 64.8286 7.43754 65.1817 7.27897C65.5421 7.12041 65.9637 7.04113 66.4466 7.04113C67.1602 7.04113 67.7295 7.22132 68.1548 7.58169C68.58 7.93485 68.8143 8.41414 68.8575 9.01956H67.4088C67.3872 8.78172 67.2863 8.59433 67.1061 8.45739C66.9331 8.31324 66.6989 8.24116 66.4034 8.24116C66.1295 8.24116 65.9169 8.29162 65.7655 8.39252C65.6214 8.49342 65.5493 8.63397 65.5493 8.81415C65.5493 9.01596 65.6502 9.17092 65.852 9.27903C66.0538 9.37993 66.3673 9.48444 66.7926 9.59255C67.225 9.70066 67.5818 9.81238 67.8629 9.9277C68.144 10.043 68.3854 10.2232 68.5872 10.4683C68.7962 10.7061 68.9043 11.0232 68.9116 11.4196C68.9116 11.7656 68.8143 12.0755 68.6197 12.3494C68.4323 12.6233 68.1584 12.8395 67.798 12.9981C67.4448 13.1494 67.0304 13.2251 66.5547 13.2251Z" fill="#CDD0D8"/>
<path d="M72.4459 13.2251C71.9558 13.2251 71.5162 13.1386 71.127 12.9656C70.7378 12.7854 70.4279 12.544 70.1972 12.2413C69.9738 11.9386 69.8513 11.6034 69.8297 11.2358H71.354C71.3828 11.4665 71.4946 11.6575 71.6892 11.8088C71.891 11.9602 72.1396 12.0359 72.4351 12.0359C72.7234 12.0359 72.9469 11.9782 73.1054 11.8629C73.2712 11.7476 73.3541 11.5998 73.3541 11.4196C73.3541 11.225 73.2532 11.0809 73.0514 10.9872C72.8568 10.8863 72.5432 10.7782 72.1108 10.6629C71.6639 10.5547 71.2964 10.443 71.0081 10.3277C70.727 10.2124 70.4819 10.0358 70.2729 9.79796C70.0711 9.56012 69.9702 9.23939 69.9702 8.83577C69.9702 8.50423 70.0639 8.20152 70.2513 7.92764C70.4459 7.65376 70.7198 7.43754 71.0729 7.27897C71.4333 7.12041 71.8549 7.04113 72.3378 7.04113C73.0514 7.04113 73.6207 7.22132 74.046 7.58169C74.4712 7.93485 74.7055 8.41414 74.7487 9.01956H73.3C73.2784 8.78172 73.1775 8.59433 72.9973 8.45739C72.8243 8.31324 72.5901 8.24116 72.2946 8.24116C72.0207 8.24116 71.8081 8.29162 71.6567 8.39252C71.5126 8.49342 71.4405 8.63397 71.4405 8.81415C71.4405 9.01596 71.5414 9.17092 71.7432 9.27903C71.945 9.37993 72.2585 9.48444 72.6838 9.59255C73.1162 9.70066 73.473 9.81238 73.7541 9.9277C74.0352 10.043 74.2766 10.2232 74.4784 10.4683C74.6874 10.7061 74.7956 11.0232 74.8028 11.4196C74.8028 11.7656 74.7055 12.0755 74.5109 12.3494C74.3235 12.6233 74.0496 12.8395 73.6892 12.9981C73.3361 13.1494 72.9216 13.2251 72.4459 13.2251Z" fill="#CDD0D8"/>
</svg>
