<svg width="57" height="19" viewBox="0 0 57 19" fill="none" xmlns="http://www.w3.org/2000/svg">
<path d="M5.1266 8.61724C5.44409 7.43255 6.66185 6.2148 7.84654 5.89731L15.2324 3.91796C16.4171 3.60048 17.1202 4.30349 16.8027 5.48818L14.8233 12.8741C14.5058 14.0588 13.2881 15.2765 12.1034 15.594L4.71747 17.5734C3.53278 17.8909 2.82977 17.1878 3.14726 16.0032L5.1266 8.61724Z" fill="#CDD0D8"/>
<path d="M2.16564 5.65631C2.48312 4.47161 3.70088 3.25386 4.88557 2.93637L12.2715 0.957024C13.4562 0.639539 14.1592 1.34255 13.8417 2.52724L11.8624 9.91315C11.5449 11.0978 10.3271 12.3156 9.14243 12.6331L1.75651 14.6124C0.571814 14.9299 -0.131197 14.2269 0.186288 13.0422L2.16564 5.65631Z" fill="#CDD0D8"/>
<path d="M23.6655 12.1331H26.2061V13.1277H22.4331V5.61401H23.6655V12.1331Z" fill="#CDD0D8"/>
<path d="M26.826 10.1222C26.826 9.52403 26.9485 8.99429 27.1936 8.53301C27.4458 8.07174 27.7846 7.71497 28.2098 7.46271C28.6423 7.20325 29.118 7.07351 29.6369 7.07351C30.1054 7.07351 30.5126 7.16721 30.8585 7.3546C31.2117 7.53479 31.4928 7.76182 31.7018 8.0357V7.17081H32.9451V13.1277H31.7018V12.2412C31.4928 12.5223 31.2081 12.7566 30.8477 12.9439C30.4874 13.1313 30.0765 13.225 29.6153 13.225C29.1035 13.225 28.6351 13.0953 28.2098 12.8358C27.7846 12.5692 27.4458 12.2016 27.1936 11.7331C26.9485 11.2574 26.826 10.7205 26.826 10.1222ZM31.7018 10.1439C31.7018 9.73305 31.6153 9.37628 31.4423 9.07357C31.2766 8.77086 31.0567 8.54022 30.7829 8.38166C30.509 8.2231 30.2135 8.14381 29.8964 8.14381C29.5792 8.14381 29.2837 8.2231 29.0098 8.38166C28.736 8.53301 28.5125 8.76005 28.3396 9.06276C28.1738 9.35826 28.0909 9.71143 28.0909 10.1222C28.0909 10.5331 28.1738 10.8934 28.3396 11.2034C28.5125 11.5133 28.736 11.7511 29.0098 11.9169C29.2909 12.0755 29.5864 12.1547 29.8964 12.1547C30.2135 12.1547 30.509 12.0755 30.7829 11.9169C31.0567 11.7583 31.2766 11.5277 31.4423 11.225C31.6153 10.9151 31.7018 10.5547 31.7018 10.1439Z" fill="#CDD0D8"/>
<path d="M39.9262 7.17081L36.272 15.9278H34.9963L36.2072 13.0304L33.8612 7.17081H35.2342L36.9099 11.7115L38.6505 7.17081H39.9262Z" fill="#CDD0D8"/>
<path d="M46.3159 10.0033C46.3159 10.2268 46.3015 10.4286 46.2727 10.6087H41.7212C41.7572 11.0844 41.9338 11.4664 42.2509 11.7547C42.568 12.043 42.9572 12.1872 43.4185 12.1872C44.0816 12.1872 44.5501 11.9097 44.824 11.3547H46.1537C45.9735 11.9025 45.6456 12.3529 45.1699 12.7061C44.7014 13.0521 44.1176 13.225 43.4185 13.225C42.8491 13.225 42.3374 13.0989 41.8833 12.8466C41.4365 12.5872 41.0833 12.2268 40.8239 11.7655C40.5716 11.2971 40.4455 10.7565 40.4455 10.1439C40.4455 9.53124 40.568 8.99429 40.813 8.53301C41.0653 8.06453 41.4149 7.70416 41.8617 7.4519C42.3158 7.19964 42.8347 7.07351 43.4185 7.07351C43.9807 7.07351 44.4816 7.19604 44.9213 7.44109C45.3609 7.68614 45.7033 8.0321 45.9483 8.47896C46.1934 8.91861 46.3159 9.42673 46.3159 10.0033ZM45.0294 9.61412C45.0222 9.16006 44.86 8.79608 44.5429 8.5222C44.2257 8.24832 43.8329 8.11138 43.3645 8.11138C42.9392 8.11138 42.5753 8.24832 42.2725 8.5222C41.9698 8.78888 41.7896 9.15285 41.732 9.61412H45.0294Z" fill="#CDD0D8"/>
<path d="M48.7612 8.0357C48.9414 7.73299 49.1793 7.49875 49.4748 7.33298C49.7775 7.16 50.1342 7.07351 50.5451 7.07351V8.34922H50.2315C49.7487 8.34922 49.3811 8.47175 49.1288 8.7168C48.8838 8.96185 48.7612 9.38709 48.7612 9.99251V13.1277H47.5288V7.17081H48.7612V8.0357Z" fill="#CDD0D8"/>
<path d="M53.8402 13.225C53.3717 13.225 52.9501 13.1422 52.5753 12.9764C52.2077 12.8034 51.9158 12.5728 51.6996 12.2845C51.4834 11.989 51.368 11.661 51.3536 11.3007H52.6293C52.651 11.5529 52.7699 11.7655 52.9861 11.9385C53.2095 12.1043 53.487 12.1872 53.8186 12.1872C54.1645 12.1872 54.4312 12.1223 54.6186 11.9926C54.8132 11.8556 54.9105 11.6827 54.9105 11.4736C54.9105 11.2502 54.8024 11.0844 54.5861 10.9763C54.3771 10.8682 54.042 10.7493 53.5807 10.6196C53.1339 10.497 52.7699 10.3781 52.4888 10.2628C52.2077 10.1475 51.9626 9.97089 51.7536 9.73305C51.5518 9.4952 51.4509 9.18168 51.4509 8.79248C51.4509 8.47535 51.5446 8.18706 51.732 7.92759C51.9194 7.66092 52.1861 7.4519 52.532 7.30055C52.8852 7.14919 53.2888 7.07351 53.7429 7.07351C54.4204 7.07351 54.9645 7.24649 55.3754 7.59245C55.7934 7.9312 56.0168 8.39607 56.0456 8.98708H54.8132C54.7916 8.72041 54.6834 8.50779 54.4888 8.34922C54.2942 8.19066 54.0312 8.11138 53.6996 8.11138C53.3753 8.11138 53.1266 8.17264 52.9537 8.29517C52.7807 8.4177 52.6942 8.57986 52.6942 8.78167C52.6942 8.94023 52.7519 9.07357 52.8672 9.18168C52.9825 9.28979 53.123 9.37628 53.2888 9.44115C53.4546 9.49881 53.6996 9.57448 54.024 9.66818C54.4564 9.7835 54.8096 9.90242 55.0835 10.0249C55.3645 10.1403 55.606 10.3132 55.8078 10.5439C56.0096 10.7745 56.1141 11.0808 56.1213 11.4628C56.1213 11.8016 56.0276 12.1043 55.8402 12.371C55.6528 12.6376 55.3862 12.8466 55.0402 12.998C54.7015 13.1494 54.3015 13.225 53.8402 13.225Z" fill="#CDD0D8"/>
</svg>
