<svg width="73" height="19" viewBox="0 0 73 19" fill="none" xmlns="http://www.w3.org/2000/svg">
<path fill-rule="evenodd" clip-rule="evenodd" d="M8.49444 14.0802C11.1529 14.0802 13.308 11.9251 13.308 9.26666C13.308 6.60823 11.1529 4.45314 8.49444 4.45314C5.83601 4.45314 3.68093 6.60823 3.68093 9.26666C3.68093 11.9251 5.83601 14.0802 8.49444 14.0802ZM8.49444 17.7611C13.1858 17.7611 16.9889 13.958 16.9889 9.26666C16.9889 4.57531 13.1858 0.772217 8.49444 0.772217C3.80309 0.772217 0 4.57531 0 9.26666C0 13.958 3.80309 17.7611 8.49444 17.7611Z" fill="#CDD0D8"/>
<path d="M8.5916 9.45268C9.47621 8.56807 10.9104 8.56807 11.7951 9.45268L16.1998 13.8574C17.0844 14.742 17.0844 16.1763 16.1998 17.0609C15.3152 17.9455 13.881 17.9455 12.9964 17.0609L8.5916 12.6561C7.70699 11.7715 7.70699 10.3373 8.5916 9.45268Z" fill="#CDD0D8"/>
<path d="M9.82839 13.893L12.6259 16.6905C13.9677 15.9421 15.0856 14.8406 15.8538 13.5115L13.0793 10.7369C12.5919 12.258 11.3686 13.4497 9.82839 13.893Z" fill="white"/>
<path d="M30.7036 13.9386C30.4585 14.2413 30.1594 14.4719 29.8062 14.6305C29.4603 14.789 29.0783 14.8683 28.6603 14.8683C28.0981 14.8683 27.59 14.7458 27.1359 14.5007C26.6818 14.2629 26.1629 13.8377 25.5791 13.225C24.8944 13.1385 24.2818 12.9187 23.7412 12.5656C23.2079 12.2124 22.7898 11.7583 22.4871 11.2034C22.1916 10.6412 22.0439 10.0213 22.0439 9.34384C22.0439 8.60148 22.2204 7.93479 22.5736 7.34379C22.934 6.74557 23.4277 6.27709 24.0547 5.93834C24.689 5.59959 25.3989 5.43022 26.1845 5.43022C26.9701 5.43022 27.6764 5.59959 28.3035 5.93834C28.9305 6.27709 29.4242 6.74557 29.7846 7.34379C30.145 7.93479 30.3252 8.60148 30.3252 9.34384C30.3252 10.2231 30.0765 10.9943 29.5792 11.6574C29.0891 12.3205 28.4368 12.7818 27.6224 13.0412C27.8026 13.2286 27.9756 13.362 28.1413 13.4413C28.3143 13.5277 28.4981 13.571 28.6927 13.571C29.1612 13.571 29.572 13.3836 29.9252 13.0088L30.7036 13.9386ZM23.8169 9.34384C23.8169 9.81232 23.9178 10.2304 24.1196 10.5979C24.3286 10.9655 24.6133 11.2538 24.9737 11.4628C25.334 11.6646 25.7377 11.7655 26.1845 11.7655C26.6314 11.7655 27.035 11.6646 27.3954 11.4628C27.7557 11.2538 28.0368 10.9655 28.2386 10.5979C28.4476 10.2304 28.5521 9.81232 28.5521 9.34384C28.5521 8.87536 28.4476 8.45733 28.2386 8.08975C28.0368 7.72217 27.7557 7.43748 27.3954 7.23567C27.035 7.02666 26.6314 6.92215 26.1845 6.92215C25.7377 6.92215 25.334 7.02666 24.9737 7.23567C24.6133 7.43748 24.3286 7.72217 24.1196 8.08975C23.9178 8.45733 23.8169 8.87536 23.8169 9.34384Z" fill="#CDD0D8"/>
<path d="M37.3821 7.31135V13.1277H35.7821V12.4358C35.5586 12.6881 35.292 12.8827 34.9821 13.0196C34.6721 13.1494 34.337 13.2142 33.9766 13.2142C33.2126 13.2142 32.6072 12.9944 32.1604 12.5547C31.7135 12.1151 31.4901 11.4628 31.4901 10.5979V7.31135H33.1766V10.3493C33.1766 11.2862 33.5694 11.7547 34.355 11.7547C34.7586 11.7547 35.083 11.625 35.328 11.3655C35.5731 11.0988 35.6956 10.706 35.6956 10.1871V7.31135H37.3821Z" fill="#CDD0D8"/>
<path d="M41.7122 13.2142C41.0996 13.2142 40.5482 13.0881 40.0581 12.8358C39.5752 12.5764 39.1968 12.2196 38.923 11.7655C38.6491 11.3115 38.5121 10.7961 38.5121 10.2195C38.5121 9.64295 38.6491 9.12762 38.923 8.67355C39.1968 8.21949 39.5752 7.86632 40.0581 7.61406C40.5482 7.3546 41.0996 7.22486 41.7122 7.22486C42.3249 7.22486 42.8726 7.3546 43.3555 7.61406C43.8384 7.86632 44.2168 8.21949 44.4907 8.67355C44.7646 9.12762 44.9015 9.64295 44.9015 10.2195C44.9015 10.7961 44.7646 11.3115 44.4907 11.7655C44.2168 12.2196 43.8384 12.5764 43.3555 12.8358C42.8726 13.0881 42.3249 13.2142 41.7122 13.2142ZM41.7122 11.8304C42.1447 11.8304 42.4978 11.6862 42.7717 11.398C43.0528 11.1024 43.1933 10.7096 43.1933 10.2195C43.1933 9.72944 43.0528 9.34024 42.7717 9.05194C42.4978 8.75644 42.1447 8.60869 41.7122 8.60869C41.2798 8.60869 40.923 8.75644 40.6419 9.05194C40.3608 9.34024 40.2203 9.72944 40.2203 10.2195C40.2203 10.7096 40.3608 11.1024 40.6419 11.398C40.923 11.6862 41.2798 11.8304 41.7122 11.8304Z" fill="#CDD0D8"/>
<path d="M49.7803 12.8466C49.6145 12.9692 49.4091 13.0629 49.164 13.1277C48.9262 13.1854 48.6739 13.2142 48.4073 13.2142C47.7153 13.2142 47.1784 13.0376 46.7964 12.6845C46.4216 12.3313 46.2342 11.8124 46.2342 11.1277V8.73842H45.3369V7.44109H46.2342V6.02483H47.9208V7.44109H49.3694V8.73842H47.9208V11.1061C47.9208 11.3511 47.982 11.5421 48.1045 11.679C48.2343 11.8088 48.4145 11.8736 48.6451 11.8736C48.9118 11.8736 49.1388 11.8016 49.3262 11.6574L49.7803 12.8466Z" fill="#CDD0D8"/>
<path d="M50.727 7.31135H52.4135V13.1277H50.727V7.31135ZM51.5703 6.50052C51.2603 6.50052 51.0081 6.41043 50.8135 6.23024C50.6189 6.05006 50.5216 5.82663 50.5216 5.55995C50.5216 5.29328 50.6189 5.06985 50.8135 4.88966C51.0081 4.70948 51.2603 4.61938 51.5703 4.61938C51.8802 4.61938 52.1324 4.70587 52.327 4.87885C52.5216 5.05183 52.6189 5.26805 52.6189 5.52752C52.6189 5.80861 52.5216 6.04285 52.327 6.23024C52.1324 6.41043 51.8802 6.50052 51.5703 6.50052Z" fill="#CDD0D8"/>
<path d="M59.6762 10.2412C59.6762 10.2628 59.6654 10.4141 59.6438 10.6952H55.2437C55.323 11.0556 55.5104 11.3403 55.8059 11.5493C56.1014 11.7583 56.4689 11.8628 56.9086 11.8628C57.2113 11.8628 57.478 11.8196 57.7086 11.7331C57.9465 11.6394 58.1663 11.4953 58.3681 11.3007L59.2654 12.2737C58.7177 12.9007 57.9176 13.2142 56.8653 13.2142C56.2095 13.2142 55.6293 13.0881 55.1248 12.8358C54.6202 12.5764 54.231 12.2196 53.9572 11.7655C53.6833 11.3115 53.5463 10.7961 53.5463 10.2195C53.5463 9.65016 53.6797 9.13843 53.9463 8.68436C54.2202 8.22309 54.5914 7.86632 55.0599 7.61406C55.5356 7.3546 56.0653 7.22486 56.6491 7.22486C57.2185 7.22486 57.7338 7.34739 58.1951 7.59244C58.6564 7.83749 59.0168 8.19066 59.2762 8.65193C59.5429 9.106 59.6762 9.63574 59.6762 10.2412ZM56.6599 8.50057C56.2779 8.50057 55.9572 8.60869 55.6977 8.82491C55.4383 9.04113 55.2797 9.33663 55.2221 9.71142H58.087C58.0293 9.34384 57.8708 9.05194 57.6113 8.83572C57.3518 8.61229 57.0347 8.50057 56.6599 8.50057Z" fill="#CDD0D8"/>
<path d="M64.3343 7.22486C65.055 7.22486 65.6352 7.44109 66.0749 7.87353C66.5218 8.30597 66.7452 8.94743 66.7452 9.79791V13.1277H65.0587V10.0574C65.0587 9.5961 64.9577 9.25375 64.7559 9.03032C64.5541 8.79968 64.2622 8.68436 63.8802 8.68436C63.455 8.68436 63.1163 8.8177 62.864 9.08437C62.6117 9.34384 62.4856 9.73304 62.4856 10.252V13.1277H60.7991V7.31135H62.4099V7.99245C62.6334 7.7474 62.9108 7.56001 63.2424 7.43027C63.5739 7.29333 63.9379 7.22486 64.3343 7.22486Z" fill="#CDD0D8"/>
<path d="M72.0254 12.8466C71.8596 12.9692 71.6542 13.0629 71.4092 13.1277C71.1713 13.1854 70.9191 13.2142 70.6524 13.2142C69.9605 13.2142 69.4235 13.0376 69.0415 12.6845C68.6667 12.3313 68.4794 11.8124 68.4794 11.1277V8.73842H67.582V7.44109H68.4794V6.02483H70.1659V7.44109H71.6146V8.73842H70.1659V11.1061C70.1659 11.3511 70.2271 11.5421 70.3497 11.679C70.4794 11.8088 70.6596 11.8736 70.8902 11.8736C71.1569 11.8736 71.3839 11.8016 71.5713 11.6574L72.0254 12.8466Z" fill="#CDD0D8"/>
</svg>
