<svg width="16" height="16" viewBox="0 0 16 16" fill="none" xmlns="http://www.w3.org/2000/svg">
<path d="M7.72222 15.4444C11.9871 15.4444 15.4444 11.9871 15.4444 7.72222C15.4444 3.45736 11.9871 0 7.72222 0C3.45736 0 0 3.45736 0 7.72222C0 11.9871 3.45736 15.4444 7.72222 15.4444Z" fill="#B9FD50"/>
<path d="M9.99093 6.80557L9.2911 9.01123C9.2911 8.8423 8.80846 5.1839 8.80846 5.1839C7.69839 5.1839 7.10958 5.9706 6.80069 6.80557L5.94642 9.01605C5.94642 8.85678 5.82576 6.82487 5.82576 6.82487C5.78455 6.38501 5.58346 5.97553 5.26058 5.67399C4.93769 5.37245 4.51543 5.1998 4.07378 5.18873L4.98114 10.7294C6.13947 10.7294 6.7669 9.94272 7.09027 9.10776L7.81423 7.22546C7.81423 7.30269 8.29687 10.7294 8.29687 10.7294C8.77052 10.7288 9.23168 10.5774 9.6135 10.2971C9.99532 10.0168 10.278 9.62221 10.4205 9.1705L12.0615 5.1839C10.9031 5.1839 10.295 5.9706 9.9861 6.80557H9.99093Z" fill="#111204"/>
</svg>
